<svg width="199" height="146" viewBox="0 0 199 146" fill="none" xmlns="http://www.w3.org/2000/svg">
<g filter="url(#filter0_d_10_648)">
<circle cx="25" cy="38" r="100" fill="#BACDFE" fill-opacity="0.38"/>
<circle cx="95" cy="-10" r="100" fill="#BACDFE" fill-opacity="0.38"/>
<path d="M108.738 58L111.447 75.6294L122.068 64.4338L115.598 80.248L129.16 80.7247L116.538 87.324L126.697 99.25L113.829 93.5466L115.83 111.342L108.738 96.0041L101.645 111.342L103.646 93.5466L90.7783 99.25L100.937 87.324L88.3151 80.7247L101.878 80.248L95.4078 64.4338L106.029 75.6294L108.738 58Z" fill="#4870FF"/>
<path d="M108.738 58L111.447 75.6294L122.068 64.4338L115.598 80.248L129.16 80.7247L116.538 87.324L126.697 99.25L113.829 93.5466L115.83 111.342L108.738 96.0041L101.645 111.342L103.646 93.5466L90.7783 99.25L100.937 87.324L88.3151 80.7247L101.878 80.248L95.4078 64.4338L106.029 75.6294L108.738 58Z" fill="black" fill-opacity="0.35"/>
</g>
<defs>
<filter id="filter0_d_10_648" x="-79" y="-110" width="278" height="256" filterUnits="userSpaceOnUse" color-interpolation-filters="sRGB">
<feFlood flood-opacity="0" result="BackgroundImageFix"/>
<feColorMatrix in="SourceAlpha" type="matrix" values="0 0 0 0 0 0 0 0 0 0 0 0 0 0 0 0 0 0 127 0" result="hardAlpha"/>
<feOffset dy="4"/>
<feGaussianBlur stdDeviation="2"/>
<feComposite in2="hardAlpha" operator="out"/>
<feColorMatrix type="matrix" values="0 0 0 0 0 0 0 0 0 0 0 0 0 0 0 0 0 0 0.25 0"/>
<feBlend mode="normal" in2="BackgroundImageFix" result="effect1_dropShadow_10_648"/>
<feBlend mode="normal" in="SourceGraphic" in2="effect1_dropShadow_10_648" result="shape"/>
</filter>
</defs>
</svg>
